<svg width="21" height="15" viewBox="0 0 21 15" fill="none" xmlns="http://www.w3.org/2000/svg">
<path d="M20.3347 8.44208L15.3347 13.6921C15.0755 13.939 14.7764 14.0625 14.4375 14.0625C14.0986 14.0625 13.7995 13.939 13.5403 13.6921C13.3051 13.4199 13.1875 13.1058 13.1875 12.75C13.1875 12.3942 13.3051 12.0801 13.5403 11.8079L16.4292 8.8125H1.9375C1.57269 8.8125 1.27361 8.68903 1.04028 8.44208C0.805093 8.16986 0.6875 7.84222 0.6875 7.45917C0.765278 6.66583 1.18194 6.24194 1.9375 6.1875H16.4292L13.5403 3.19208C13.3051 2.91986 13.1875 2.60583 13.1875 2.25C13.1875 1.89417 13.3051 1.58014 13.5403 1.30792C13.7995 1.06097 14.0986 0.9375 14.4375 0.9375C14.7764 0.9375 15.0755 1.06097 15.3347 1.30792L20.3347 6.55792C20.5699 6.83014 20.6875 7.14417 20.6875 7.5C20.6875 7.85583 20.5699 8.16986 20.3347 8.44208Z" fill="white"/>
</svg>
