<svg width="20" height="20" viewBox="0 0 20 20" fill="none" xmlns="http://www.w3.org/2000/svg">
<rect width="20" height="20" rx="10" fill="#4A4F61"/>
<path d="M9.20312 6.07031L9.71875 5.55469C9.95312 5.34375 10.3047 5.34375 10.5156 5.55469L15.0859 10.1016C15.2969 10.3359 15.2969 10.6875 15.0859 10.8984L10.5156 15.4688C10.3047 15.6797 9.95312 15.6797 9.71875 15.4688L9.20312 14.9531C8.99219 14.7188 8.99219 14.3672 9.20312 14.1328L12.0391 11.4375H5.3125C4.98438 11.4375 4.75 11.2031 4.75 10.875V10.125C4.75 9.82031 4.98438 9.5625 5.3125 9.5625H12.0391L9.20312 6.89062C8.99219 6.65625 8.96875 6.30469 9.20312 6.07031Z" fill="white"/>
</svg>
